# xmcd CD database file
#
# Track frame offsets:
#	150
#	10847
#	23346
#	35167
#	43878
#	73841
#	83435
#	96435
#	111073
#	122035
#	153534
#
# Disc length: 2354 seconds
#
# Revision: 0
# Processed by: cddbd v1.5.2PL0 Copyright (c) Steve Scherf et al.
# Submitted via: CDex 1.70beta2
#
DISCID=8809300b
DTITLE=Louis Armstrong - Louis Armstrong - The Platinum Collection [CD3]
DYEAR=2006
DGENRE=Jazz
TTITLE0=Zip-a-dee-doo-dah
TTITLE1=Ten feet off the ground
TTITLE2=Heigh-ho (The dwarf's marching song)
TTITLE3=Whistle while you work
TTITLE4=Chim chim cher-ee
TTITLE5=Bibbidi-bobbidi-boo
TTITLE6='Bout time
TTITLE7=The ballad of Davy Crocket
TTITLE8=The bare necessities
TTITLE9=When you wish upon a star
TTITLE10=When you wish upon a star (audio visual bonus track)
EXTD=YEAR: 2006
EXTT0=
EXTT1=
EXTT2=
EXTT3=
EXTT4=
EXTT5=
EXTT6=
EXTT7=
EXTT8=
EXTT9=
EXTT10=
PLAYORDER=
